<svg xmlns="http://www.w3.org/2000/svg" viewBox="0 0 512 512" style="height: 512px; width: 512px;"><path d="M0 0h512v512H0z" fill="#000" fill-opacity="1"></path><g class="" transform="translate(0,0)" style=""><g><path d="M287.7 18.92L219.1 22.54L220.2 37.65L220.6 37.55C226.4 36.31 231.9 35.66 237 35.5C252.4 35.02 264.9 38.95 275.2 44.5C279.1 46.63 282.7 48.93 286.2 51.26Z" class="" fill="#8b572a" fill-opacity="1"></path><path d="M239.9 53.31C239.2 53.31 238.4 53.31 237.7 53.41C233.8 53.58 229.6 54.14 224.9 55.11C197.2 64.61 178.8 76.02 168.4 87.2C157.9 98.38 155.2 108.8 157.2 119.2C161 138.4 185.3 160.4 225.5 174.1L225.5 140.8C220.5 138.1 216.6 134.9 214.7 129.3C213.4 125.6 213.8 121.5 214.9 118.4C216 115.2 217.7 112.7 219.7 110L224.2 103.9L231 107.4C279.1 131.8 312.6 138 339.3 126.9C352.1 121.6 355.7 116.6 356.1 115C356.4 113.4 355.6 110.5 350.4 106C340.2 96.78 317.2 87.22 303.3 83.8L302.3 83.53L301.3 83.01C287.6 75.78 277.6 66.31 266.6 60.33C258.8 56.13 250.8 53.22 239.9 53.31Z" class="" fill="#417505" fill-opacity="1"></path><path d="M289.7 90.5C294.066 90.509 297.601 94.035 297.6 98.38C297.623 102.741 294.082 106.291 289.7 106.3C285.318 106.291 281.777 102.741 281.8 98.38C281.799 94.035 285.334 90.509 289.7 90.5Z" class="" fill="#000000" fill-opacity="1"></path><path d="M437.5 123.2C425.2 123.5 413.5 126.7 404.5 131.6C394 130.2 383.1 127.4 371.8 123.9C369.1 129.5 364.2 134.1 357.2 138.2C371.1 142.8 385.3 146.9 399.6 149.1C402.3 161.9 407.6 174.6 417.3 186.2L431.1 174.6C423.4 165.4 419.2 155.9 417.1 145.6C425.5 142.3 437.8 140.1 448.3 142.1L451.5 124.3C446.8 123.5 442.1 123.1 437.5 123.2Z" class="" fill="#d0021b" fill-opacity="1"></path><path d="M243.5 133.1L243.5 190.8C250.2 189 256.3 187.3 261.1 185.8C264.7 184.6 267.2 183.6 268.7 182.8L269 142.8C260.8 140.2 252.4 137 243.5 133.1Z" class="selected" fill="#8b572a" fill-opacity="1"></path><path d="M286.9 158.9L286.7 186.3L286.7 186C286.8 189.6 285 192.7 283.4 194.5C281.7 196.3 280 197.3 278.3 198.3C274.8 200.2 271 201.5 266.5 202.9C257.6 205.7 246.4 208.5 235.2 211.9C224 215.3 212.8 219.5 204.6 224.3C196.5 229.2 192 234.3 191 239.5C187.9 255.9 190.9 265.1 198.5 273.7C203.7 279.8 212.1 285.4 222.5 290.9L220.1 269.6L226.2 267C244.5 258.9 264.5 253.2 281.5 245.9C298.6 238.7 312.2 230.1 319.7 217.7C324.4 209.8 325.2 204.1 324.2 198.7C323.3 193.4 320.2 188 315.1 182.3C308.1 174.5 297.6 166.8 286.9 158.9Z" class="" fill="#417505" fill-opacity="1"></path><path d="M269.8 269.8C259.4 273.6 249 277.1 239.5 281L242.8 311.2L242.9 311.2C251.9 308.3 260.3 305.8 265.8 303.6C268.1 302.6 269.5 301.8 270.4 301.2Z" class="" fill="#8b572a" fill-opacity="1"></path><path d="M288.1 285.2L288.4 303.4L288.4 303.6C288.4 308.9 285 312.8 282.1 315.1C279.2 317.3 276.1 318.8 272.6 320.2C265.6 323.1 257.2 325.5 248.5 328.3C231.4 333.8 214.5 341.7 209.6 349.6C204.1 365.4 206.1 372.9 211.6 379.6C215 383.8 220.6 387.6 227.4 391.4L225.2 372.7L232.5 370.6C232.5 370.6 252.4 364.7 272.7 354.8C282.9 349.8 293.1 343.9 300.6 337.5C308.2 331.2 312.6 324.7 313.4 319.4C313.8 316.9 312.6 312.7 309.4 307.5C306.1 302.4 301 296.8 295.6 291.8C293.1 289.4 290.5 287.2 288.1 285.2Z" class="" fill="#417505" fill-opacity="1"></path><path d="M268.2 376.7C258.3 380.9 250.4 383.6 245.1 385.3L245.6 392.3L249.1 422L247.7 421.3L247.8 422.5L249 422.2C254.9 420.8 259.9 419.3 262.5 417.9C265.2 416.5 264.7 416.6 264.7 416.5L268 379.3Z" class="" fill="#8b572a" fill-opacity="1"></path><path d="M284.8 394.3L282.7 418.1C282 425.6 276.2 431.1 270.8 433.9C265.3 436.7 259.3 438.2 253.1 439.7C240.7 442.6 227.2 445.5 220 450.3C212.9 455 208.7 459.6 206.7 463.2C204.7 466.9 204.6 469.3 205.5 472.3C206.8 476.3 211.6 481.7 219.7 486.8C219.6 482.4 220.1 478.3 221.9 474.2C223.8 469.9 227.7 466.4 231.7 464.5C235.7 462.6 239.9 461.7 244.9 460.8C256 458.9 272.8 455.3 286.5 448.6C300.2 441.9 309.7 433.2 311.2 420.5C311.4 418.5 310.4 415.6 307.3 411.7C304.3 407.9 299.4 403.8 294.3 400.2C291 398 287.8 396 284.8 394.3Z" class="" fill="#417505" fill-opacity="1"></path><path d="M266 474.8C260.8 476.1 256 477.1 251.8 477.9L252.8 492.4L265.1 493.1Z" class="" fill="#8b572a" fill-opacity="1"></path></g></g></svg>