<svg xmlns="http://www.w3.org/2000/svg" viewBox="0 0 512 512" style="height: 512px; width: 512px;"><path d="M0 0h512v512H0z" fill="#000" fill-opacity="1"></path><g class="" transform="translate(0,0)" style=""><g><path d="M228.223 21.195C227.533 21.202 226.856 21.221 226.187 21.25C215.489 21.72 207.657 24.812 202.125 30.344C155.878 76.591 137.633 120.139 137.781 159.406C137.931 198.674 156.544 234.701 187.626 265.781C218.35 296.504 256.814 312.805 297.689 311.721C329.634 310.871 363.287 299.374 395.959 274.897C394.896 273.06 393.809 271.251 392.683 269.503C382.078 253.066 368.639 240.899 356.409 234.737C356.406 234.737 356.403 234.735 356.399 234.733C354.065 233.845 351.685 232.851 349.265 231.757L347.921 231.312L347.451 230.898C325.144 220.445 299.598 201.656 274.931 176.988C251.151 153.208 232.831 128.468 222.157 106.832C216.821 96.012 213.337 85.987 212.317 76.682C211.297 67.376 212.925 57.938 219.487 51.375C224.409 46.453 230.949 44.305 237.837 43.971C240.133 43.858 242.467 43.947 244.794 44.201C254.099 45.223 264.128 48.708 274.946 54.044C296.584 64.717 321.321 83.036 345.101 106.814C365.291 127.006 381.527 147.912 392.509 166.98C402.863 169.286 412.285 173.238 420.763 178.54C408.888 151.615 388.028 121.338 360.063 93.375C328.559 61.872 294.086 39.372 264.813 28.595C251.093 23.541 238.553 21.095 228.223 21.195Z" class="" fill="#fff" fill-opacity="1"></path><path d="M453.003 156.053C444.847 156.053 438.236 162.663 438.236 170.818C438.236 178.974 444.846 185.584 453.002 185.584C461.157 185.584 467.768 178.974 467.768 170.818C467.768 162.664 461.158 156.053 453.002 156.053Z" class="" fill="#d0021b" fill-opacity="1"></path><path d="M321.853 183.33L357.673 214.988C376.523 221.922 394.488 237.828 408.387 259.368C422.792 281.698 432.687 310.242 432.687 341.6L432.687 383.912C430.009 380.152 425.624 377.689 420.657 377.689C412.501 377.689 405.891 384.299 405.891 392.454C405.891 400.61 412.501 407.22 420.657 407.22C425.625 407.22 430.01 404.76 432.687 400.998L432.687 494.086L464.964 494.086L464.964 472.928C467.622 474.231 470.601 474.982 473.761 474.982C484.828 474.982 493.801 466.01 493.801 454.942C493.801 443.874 484.828 434.902 473.761 434.902C470.601 434.902 467.621 435.654 464.964 436.957L464.964 341.6C464.964 301.424 458.289 260.72 443.104 231.178C427.92 201.634 405.869 183.33 370.938 183.33L321.853 183.33Z" class="" fill="#d0021b" fill-opacity="1"></path><path d="M157.781 260.53L130.721 273.25L130.939 273.47C127.565 276.83 127.327 279.223 129.376 285.062C131.426 290.902 136.926 298.782 144.596 306.437C152.088 313.92 160.136 319.074 166.282 321.062C172.43 323.052 175.252 322.462 177.658 320.062L177.752 320.156L190.377 293.281C184.85 288.881 179.519 284.111 174.407 279.001C168.471 273.064 162.917 266.905 157.783 260.531Z" class="" fill="#fff" fill-opacity="1"></path><path d="M29.781 276.906C25.634 277.028 22.971 278.188 21.407 279.75C19.455 281.703 17.849 285.45 17.907 291.938C17.965 298.426 19.811 307.138 23.627 316.906C31.257 336.441 46.602 360.194 68.345 381.936C90.088 403.681 114.103 419.29 133.939 427.188C143.856 431.136 152.717 433.112 159.314 433.25C165.91 433.388 169.679 431.822 171.564 429.937C174.049 427.452 175.474 422.1 173.282 412.281C171.739 405.361 168.384 396.859 163.472 387.564C153.395 394.219 140.372 394.499 128.408 390.626C114.378 386.084 100.378 376.431 87.502 363.563C74.799 350.869 64.66 337.529 59.782 323.626C55.579 311.639 56.138 298.188 63.502 287.596C54.25 282.739 45.808 279.436 38.939 277.938C35.287 277.143 32.272 276.834 29.783 276.908Z" class="" fill="#fff" fill-opacity="1"></path><path d="M109.97 283L84.406 295L79.781 297.188L79.657 297.094C74.58 302.781 74.265 308.478 77.407 317.438C80.759 326.994 89.227 338.858 100.72 350.344C112.038 361.654 124.22 369.628 134.156 372.844C143.256 375.79 149.279 375.252 153.936 371.438L153.781 371.188L155.971 366.563L168.221 340.469C165.609 340.196 163.013 339.645 160.531 338.843C150.293 335.531 140.428 328.693 131.376 319.655C122.498 310.791 115.326 301.438 111.751 291.249C110.826 288.615 110.217 285.829 109.971 282.999Z" class="" fill="#fff" fill-opacity="1"></path><path d="M385.256 310.602C374.189 310.602 365.216 319.572 365.216 330.642C365.216 341.71 374.189 350.682 385.256 350.682C396.323 350.682 405.296 341.71 405.296 330.642C405.296 319.572 396.323 310.602 385.256 310.602Z" class="selected" fill="#d0021b" fill-opacity="1"></path></g></g></svg>