<svg xmlns="http://www.w3.org/2000/svg" viewBox="0 0 512 512" style="height: 512px; width: 512px;"><path d="M0 0h512v512H0z" fill="#000" fill-opacity="1"></path><g class="" transform="translate(0,0)" style=""><g><path d="M485.846 30L312.879 104.424L377.162 124.744L247.535 189.93L331.172 209.344L234.176 271.563L453.309 201.863L358.019 173.537L471.192 112.8L399.077 97.776L485.846 30Z" class="selected" fill="#f8e71c" fill-opacity="1"></path><path d="M205.386 75.766C177.32 75.649 155.46 132.298 147.66 166.373C136.4 215.563 133.131 249.888 146.832 299.432L129.484 304.23C114.021 248.313 121.239 209.48 131.785 161.889C142.332 114.297 146.305 91.486 127.326 87.707C85.244 79.328 82.04 178.17 79.57 222.604C78.174 248.412 80.28 279.621 86.11 300.156L69.209 306.352C54.779 253.002 62.552 208.395 67.516 155.582C70.009 140 65.729 129.905 48.414 130.416C32.581 130.883 21.399 273.778 35.139 309.457C43.852 362.518 66.386 440.029 46.094 462.223L18 494L223.973 494L243.959 465.408C267.039 460.4 272.379 445.548 280.982 431.621C306.273 390.675 363.366 348.455 410.096 332.395C431.238 324.885 388.184 283.849 356.26 299.613C301.255 326.775 274.614 355.911 238.488 337.908C182.633 310.074 191.243 237.26 202.627 175.078C208.768 141.534 243.037 85.476 209.783 76.254C208.339 75.938 206.865 75.775 205.387 75.766Z" class="" fill="#fff" fill-opacity="1"></path></g></g></svg>