<svg xmlns="http://www.w3.org/2000/svg" viewBox="0 0 512 512" style="height: 512px; width: 512px;"><path d="M0 0h512v512H0z" fill="#000000" fill-opacity="1"></path><g class="" transform="translate(0,0)" style=""><g><path d="M169.92 15.654C159.408 32.351 147.528 49.712 128.232 66.127C128.692 66.574 129.166 67.017 129.637 67.463L153.187 67.057L149.66 77.757C149.155 79.287 148.595 80.805 147.982 82.309C150.785 84.254 153.727 86.184 156.854 88.097L181.906 103.427L135.916 102.634C133.962 105.108 131.856 107.534 129.611 109.909C138.411 121.426 151.656 132.622 168.286 142.675L155.882 142.31L155.867 147.988C164.397 154.346 173.659 160.436 183.029 166.468C201.139 154.9 214.819 141.968 222.539 128.852L165.186 129.842L190.238 114.512C199.208 109.024 206.763 103.397 213.32 97.645C208.222 92.17 204.32 86.683 202.063 80.955L198.023 70.709L227.765 68.886C205.14 54.41 182.44 38.31 169.92 15.654Z" class="" fill="#417505" fill-opacity="1"></path><path d="M404.525 28.877C397.988 41.839 390.645 57.893 380.887 73.507C391.814 91.874 405.315 109.504 427.66 125.889L448.08 140.859L395.57 139.774C402.526 151.91 415.506 166.632 430.15 179.821C449.307 197.075 471.078 212.393 484.057 219.735L495.397 226.153C495.402 221.99 495.402 218.771 495.412 212.181C478.236 200.243 465.645 186.386 459.09 169.981L454.975 159.683L498.58 157.103C488.67 152.745 478.833 148.84 469.857 145.043C461.359 141.449 453.627 137.936 447.133 133.813C440.638 129.691 435.031 124.859 432.275 117.87L428.345 107.908L464.422 104.73C440.177 84.504 417.199 55.974 404.525 28.877Z" class="" fill="#417505" fill-opacity="1"></path><path d="M84.027 34.62C71.507 57.276 48.807 73.377 26.184 87.854L55.922 89.676L51.885 99.92C47.105 112.045 35.07 124.043 18.703 136.793C18.408 148.003 18.311 154.453 18.318 154.525C18.323 154.569 18.508 155.625 18.608 157.652C18.646 158.394 18.648 160.829 18.674 162.01L32.502 162.807L32.498 163.357L28.592 173.135C27.412 176.09 26.094 179.205 24.432 182.367L35.957 175.317C73.333 152.447 86.377 127.154 103.352 100.484L103.119 106.85L107.593 104.975C106.316 102.273 105.211 99.523 104.288 96.725L100.76 86.025L127.342 86.485C107.068 69.66 94.836 51.787 84.027 34.618Z" class="" fill="#417505" fill-opacity="1"></path><path d="M263.06 61.036C252.252 78.204 240.02 96.076 219.746 112.896L246.328 112.438L242.801 123.138C236.144 143.326 220.029 161.028 197.927 176.048L215.843 187.621L234.116 188.309L229.989 198.809C227.684 204.672 224.634 210.209 220.979 215.459L229.716 209.269C247.629 196.579 266.489 181.774 281.516 167.735C291.542 158.37 299.494 149.215 304.599 141.821L254.062 138.106L270.562 125.333C280.932 117.306 291.535 109.393 301.486 101.155C285.996 89.909 271.956 77.131 263.063 61.035Z" class="" fill="#417505" fill-opacity="1"></path><path d="M356.13 61.716C343.37 88.521 319.903 107.756 297.023 125.222L328.413 127.528L325.219 137.254C320.716 150.954 308.236 164.666 292.436 179.426C281.642 189.509 269.191 199.716 256.54 209.352L305.818 212.846L302.558 222.626C291.285 256.432 255.713 279.55 226.742 298.223C240.229 306.279 254.412 313.663 266.555 320.541C334.895 339.361 414.149 327.513 467.479 304.541C454.289 296.987 443.635 289.994 434.731 281.535C422.926 270.319 414.659 256.575 408.354 237.352L405.337 228.144L457.307 221.534C445.433 213.324 432.137 203.144 419.44 191.709C399.33 173.596 381.046 153.706 375.525 133.642L372.68 123.3L400.547 123.877C379.373 103.807 367.005 82.392 356.131 61.717Z" class="" fill="#417505" fill-opacity="1"></path><path d="M108.78 121.84C97.973 139.008 85.742 156.88 65.467 173.7L92.049 173.244L88.519 183.941C80.279 208.939 57.545 230.127 26.894 247.126L79.834 249.116L75.708 259.612C64.658 287.722 45.948 312.586 14.67 331.197C88.555 353.763 171.244 362.765 246.252 327.625C233.344 320.57 219.352 312.972 205.922 304.065C187.852 292.082 171.397 278.329 164.212 260.352L160.096 250.052L208.496 247.188C196.668 239.563 185.081 231.708 174.939 223.805C158.694 211.142 145.879 199.719 140.919 187.141L136.879 176.894L166.619 175.071C143.999 160.595 121.301 144.495 108.779 121.841Z" class="" fill="#417505" fill-opacity="1"></path><path d="M68.26 189.656L19.244 190.5C19.076 190.718 18.924 190.94 18.752 191.156C18.476 212.651 18.304 224.54 18.25 233.536C41.592 220.479 59.113 205.198 68.26 189.656Z" class="" fill="#417505" fill-opacity="1"></path><path d="M173.934 202.059C177.204 205.027 180.817 208.094 184.779 211.183C188.299 213.926 192.045 216.707 195.919 219.491C201.359 214.314 206.003 208.946 209.611 203.399L173.933 202.059Z" class="" fill="#417505" fill-opacity="1"></path><path d="M215.592 222.487C213.722 224.712 211.727 226.875 209.645 228.991C218.922 235.183 228.597 241.233 238.025 246.806L255.67 257.233C267.01 247.813 276.805 237.81 282.885 227.261L215.592 222.487Z" class="" fill="#417505" fill-opacity="1"></path><path d="M495.395 232.821L427.012 241.519C431.678 252.969 437.059 261.269 444.292 268.511L444.082 258.911C461.537 257.915 478.787 255.559 495.482 251.548C495.417 244.374 495.398 239.128 495.395 232.82Z" class="" fill="#417505" fill-opacity="1"></path><path d="M251.435 260.673L185.041 264.601C188.944 269.788 194.126 274.927 200.138 279.915C206.555 281.199 213.043 282.378 219.593 283.419C230.231 276.299 241.313 268.706 251.435 260.673Z" class="" fill="#417505" fill-opacity="1"></path><path d="M31.691 263.313L31.401 298.931C42.147 288.561 50.093 276.961 56.231 264.237L31.691 263.313Z" class="" fill="#8b572a" fill-opacity="1"></path><path d="M445.638 329.847C431.376 334.424 416.121 338.243 400.258 341.069L405.808 473.249L448.786 473.249L445.638 329.847Z" class="" fill="#8b572a" fill-opacity="1"></path><path d="M263.808 336.849C261.145 338.253 258.471 339.599 255.79 340.895L254.863 455.169L307.545 455.169L305.119 344.673C291.173 343.121 277.331 340.55 263.806 336.849Z" class="" fill="#8b572a" fill-opacity="1"></path><path d="M384.348 343.542C369.263 345.534 353.766 346.592 338.168 346.536L337.782 486.278L390.342 486.278L384.348 343.541Z" class="" fill="#8b572a" fill-opacity="1"></path><path d="M30.968 352.688L30.044 466.728L74.31 466.728L76.285 362.33C60.923 359.866 45.775 356.58 30.967 352.687Z" class="" fill="#8b572a" fill-opacity="1"></path><path d="M205.688 358.958C194.112 361.828 182.462 363.893 170.79 365.242L174.705 431.437L207.77 431.437L205.686 358.957Z" class="" fill="#8b572a" fill-opacity="1"></path><path d="M92.245 364.586L89.737 497.146L162.429 494.859L154.845 366.649C133.875 367.939 112.909 367.073 92.245 364.587Z" class="selected" fill="#8b572a" fill-opacity="1"></path></g></g></svg>