<svg xmlns="http://www.w3.org/2000/svg" viewBox="0 0 512 512" style="height: 512px; width: 512px;"><path d="M0 0h512v512H0z" fill="#000" fill-opacity="1"></path><g class="" transform="translate(0,0)" style=""><g><path d="M281.3 18.28C242.2 51.67 303.1 86.26 276.7 95.68C249.6 105.4 228.1 72.82 214 39.89C187.4 63.8 175.6 115.9 177.9 156.6C156.2 147.9 152.6 138.3 154.6 107.8C83.4 148.3 165.6 232 115.3 241.1C97.53 244.3 62.69 224.1 58.65 192.6C29.39 235.2 44.37 294.8 81.64 344C49.14 349.7 36.24 334.1 24.83 320.5C4.001 381.2 29.73 424.9 78.66 452.8C107.1 429.8 136.9 408.8 158.5 374.3C133.7 383.9 120.5 378.8 98.2 379.5C128.2 353 155.6 318.5 175.6 287.5C152.8 294.2 144.6 298.9 125.1 292.4C148.5 272.6 169.5 253 184.7 226.2C176.7 232 166.4 234.8 151.6 231.2C178.3 209.2 192.2 198 204.8 167.5C210.8 190 219.8 210.1 242.7 231.5C234.6 234.1 225.3 231.4 211.3 226.6C225.1 248.9 253 274.5 280.4 291.1C264.8 296.8 245.3 295.2 227.5 288.6C240.1 322 279.8 348.5 306.4 376.7C285.9 383.3 263.2 377.3 243.8 375.3C257.5 402.3 284 421.1 310.2 440.2C321.4 432 331.5 423.1 337.7 411.9C324.5 413.1 309 416.8 295 412.7C313.1 395.1 341.4 381.1 350 360.3C337.9 364.4 323.4 364.6 312.7 361.1C331.4 350.7 348.6 332.3 358 318.4C348.5 321.4 342.8 322.3 334.8 321.5C347.6 310.8 362.1 295.6 366.1 281.5C376.7 294.7 382.3 307.9 400.5 321.7C390.4 324 383.9 321.9 377.9 320.2C388.3 336.9 412.9 352.8 428.8 365.2C412.9 364.9 400.1 366 384.1 356.9C397.8 376.3 416.4 397.9 436.9 414.4C422.2 418.2 416.1 416.4 399.2 410.4C410.1 426.3 422.1 438.1 435.5 449C476.8 418.3 494.8 369.4 492.9 298.8C476.9 332.1 455.6 330.6 434.2 326.5C451.5 315.6 474.5 226.2 459.1 203.1C454.9 234.2 414 290.4 385 264.6C429.6 202.8 428 176.3 409.6 143.1C400 163.1 384.3 208 352.3 196.6C415 85.71 296.6 77.44 281.3 18.28Z" class="" fill="#f5a623" fill-opacity="1"></path><path d="M80.12 453.6C109 469.8 145.8 480.5 185.8 486.1L187.9 469.4C152.4 467.5 116.4 461.6 80.12 453.6Z" class="" fill="#f5a623" fill-opacity="1"></path><path d="M289.7 460.8C265.7 466.7 241.3 469.5 216.6 469.9L217.9 489.4C229.4 490.3 241 490.7 252.7 490.7C296 490.8 332.9 487.5 363.9 480.2L364.2 471C338.8 471.3 313.9 468.5 289.7 460.8Z" class="selected" fill="#f5a623" fill-opacity="1"></path></g></g></svg>