<svg xmlns="http://www.w3.org/2000/svg" viewBox="0 0 512 512" style="height: 512px; width: 512px;"><path d="M0 0h512v512H0z" fill="#000000" fill-opacity="1"></path><g class="" transform="translate(0,0)" style=""><g><path d="M281 24.15L246.4 77.2L326.4 128.9L382.1 258.3C387.7 255.7 395.5 251.4 403.9 245.6C416.6 236.7 431.1 224.7 444.2 211.2C457.4 197.7 469.3 182.8 476.9 168.4C483.5 155.8 486.8 143.9 485.9 133.6L359.1 74.97Z" class="selected" fill="#ffd700" fill-opacity="1"></path><path d="M247.6 99.41C164.4 214.2 107.9 325.2 25.98 453.3C25.98 453.4 25.98 453.3 26.13 453.7C26.45 454.8 27.62 457.1 29.66 459.6C33.73 464.7 40.99 471 48.88 476.1C56.77 481.2 65.43 485.3 71.76 487C74.92 487.8 77.47 487.9 78.64 487.8C79.01 487.7 79.01 487.7 79.11 487.7C101.1 453.9 111.1 438.7 127.2 377.4L127.5 376.1L128.3 375C188.8 277.3 213.2 218 283.3 122.5Z" class="" fill="#fff" fill-opacity="1"></path></g></g></svg>