<svg xmlns="http://www.w3.org/2000/svg" viewBox="0 0 512 512" style="height: 512px; width: 512px;"><path d="M0 0h512v512H0z" fill="#000" fill-opacity="1"></path><g class="" transform="translate(0,0)" style=""><g><path d="M194.6 18.26C220.3 46.52 215.4 88.6 179.8 99.94C130.2 115.7 90.55 82.99 53.45 59.62C63.11 95.64 87.2 146.6 132 175.6C105.5 192.8 70.67 199.3 34.35 203.9C75.04 224.1 116.3 242.6 164.1 246.1C125.3 282.4 89.86 307.9 36.55 323C80.23 336.4 126.3 339.4 169.3 327.8C131.3 371.6 110.3 416.7 97.25 462.5C132.2 446.3 161.8 418.5 214.8 423.7C212.6 449.2 218.7 472.8 238.1 493.7C246.9 461.9 267.1 432.9 303.8 407.8C330.6 443.1 375.3 464.6 425.9 481.6C403.1 448 374.9 415.1 384.1 376.2C390.4 350.3 419.6 327.4 463.9 331.5C445.6 305.8 396.1 279.4 345.5 260.9C404.6 246.2 446.9 208.9 477.6 171.3C430.3 175.8 368.6 194.2 336.1 161.2C373.1 123.6 408.5 78.8 414.5 34.16C374.4 61.07 334 86.05 289.6 79.66C271.6 56.56 248.6 33.41 194.6 18.26Z" class="" fill="#d0021b" fill-opacity="1"></path><path d="M309 91.24L318.5 140.2L307.8 142.3C309.8 159.5 308.8 182.4 303.4 204.1C300.3 216.9 295.5 229.3 288.3 239.4C286.6 241.8 284.6 244.1 282.6 246.3C285.3 247.4 287.9 248.8 290.4 250.4C300.9 257 309.9 266.6 317.6 277.3C330.8 295.3 340.3 316.1 345 332.7L355.6 330.6L365.3 379.5L203.6 411.8L195.8 371.6L194.1 362.8L204.8 360.7C202.8 343.5 203.8 320.6 209.2 298.9C212.3 286.1 217.1 273.7 224.3 263.6C226 261.2 227.9 258.9 229.9 256.8C227.2 255.6 224.7 254.2 222.2 252.6C211.7 246 202.7 236.4 194.9 225.7C181.8 207.7 172.3 186.9 167.6 170.3L156.9 172.4L149.1 132.3L147.3 123.5Z" class="" fill="#000000" fill-opacity="1"></path><path d="M294.8 112.4L168.5 137.7L171.1 151.2L297.5 126Z" class="" fill="#8b572a" fill-opacity="1"></path><path d="M289.9 145.8L185.5 166.7C189.8 180.7 198.2 199.7 209.5 215.1C216.3 224.5 224.1 232.5 231.8 237.4C236.5 240.3 241 242.2 245.5 242.9L249.6 263.6C245.6 266 242.2 269.4 239 274C233.6 281.5 229.4 291.9 226.6 303.2C222 321.8 221.4 342.6 222.7 357.2L327.1 336.3C322.8 322.3 314.4 303.3 303.1 287.9C296.3 278.5 288.5 270.5 280.8 265.6C276.1 262.6 271.6 260.8 267.1 260.1L263 239.4C267 237 270.4 233.6 273.6 229C279 221.5 283.1 211.1 286 199.8C290.6 181.2 291.1 160.4 289.9 145.8Z" class="" fill="#ffffff" fill-opacity="1"></path><path d="M341.5 351.8L215.1 377L217.8 390.6L344.1 365.3Z" class="selected" fill="#8b572a" fill-opacity="1"></path></g></g></svg>