<svg xmlns="http://www.w3.org/2000/svg" viewBox="0 0 512 512" style="height: 512px; width: 512px;"><path d="M0 0h512v512H0z" fill="#000000" fill-opacity="1"></path><g class="" transform="translate(0,0)" style=""><g><path d="M136.48 27.746C134.372 27.77 132.306 27.898 130.238 28.018C173.165 51.053 217.471 87.452 252.14 124.588C260.8 133.864 264.498 143.353 268.511 152.028C270.997 157.398 273.684 162.686 277.808 168.398L308.458 142.025C305.391 136.994 303.245 131.458 302.414 125.639C301.495 119.207 302.504 112.356 305.453 106.159C272.533 82.124 236.8 58.909 202.703 44.133C179.924 34.262 158.156 28.29 138.603 27.762C137.889 27.742 137.183 27.738 136.48 27.746Z" class="" fill="#4a4a4a" fill-opacity="1"></path><path d="M362.943 127.002C360.118 127.002 357.381 127.507 354.851 128.295L383.761 157.205C384.549 154.675 385.054 151.939 385.054 149.113C385.054 142.628 382.74 136.387 379.204 132.851C375.669 129.316 369.428 127.001 362.943 127.001Z" class="" fill="#fff" fill-opacity="1"></path><path d="M339.855 138.756L317.965 157.592C327.916 155.059 338.95 157.651 346.677 165.379C354.405 173.107 356.997 184.14 354.465 194.092L373.3 172.202Z" class="" fill="#fff" fill-opacity="1"></path><path d="M325.465 174.536C322.412 174.536 319.361 175.725 316.98 178.106C312.218 182.867 312.218 190.314 316.98 195.076C321.742 199.838 329.19 199.838 333.95 195.076C338.713 190.314 338.713 182.867 333.95 178.106C331.57 175.725 328.517 174.536 325.465 174.536Z" class="" fill="#fff" fill-opacity="1"></path><path d="M297.883 174.871L288.037 183.341L282.685 229.371L328.715 224.019L337.183 214.178C326.26 218.766 313.093 216.645 304.252 207.805C295.41 198.963 293.293 185.795 297.882 174.871Z" class="" fill="#fff" fill-opacity="1"></path><path d="M370.031 203.598L343.658 234.248C349.37 238.372 354.658 241.06 360.029 243.545C368.703 247.558 378.192 251.256 387.469 259.915C424.605 294.585 461.003 338.892 484.039 381.818C485.293 360.18 479.236 335.458 467.924 309.353C453.148 275.256 429.932 239.524 405.898 206.603C399.7 209.553 392.849 210.561 386.418 209.643C380.598 208.811 375.063 206.665 370.031 203.598Z" class="selected" fill="#4a4a4a" fill-opacity="1"></path><path d="M266.656 211.388L238.258 237.976L274.08 273.8L300.668 245.401L262.179 249.878Z" class="" fill="#fff" fill-opacity="1"></path><path d="M225.111 250.285L213.425 261.226L250.83 298.631L261.771 286.945Z" class="" fill="#fff" fill-opacity="1"></path><path d="M200.279 273.537L109.715 358.334L153.722 402.342L238.519 311.777Z" class="" fill="#fff" fill-opacity="1"></path><path d="M96.566 370.643L74.656 391.158L120.898 437.4L141.414 415.49Z" class="" fill="#fff" fill-opacity="1"></path><path d="M68.476 410.433L62.82 427.404L84.652 449.236L101.622 443.58Z" class="" fill="#fff" fill-opacity="1"></path><path d="M49.687 439.728L31.197 449.414C29.983 453.908 29.066 458.476 28.451 463.09C27.843 467.638 27.599 472.38 27.982 476.01C28.365 479.64 29.478 481.745 29.894 482.162C30.311 482.579 32.417 483.692 36.047 484.074C39.677 484.457 44.419 484.213 48.967 483.605C53.581 482.99 58.149 482.073 62.642 480.859L72.328 462.369Z" class="" fill="#fff" fill-opacity="1"></path></g></g></svg>