<svg xmlns="http://www.w3.org/2000/svg" viewBox="0 0 512 512" style="height: 512px; width: 512px;"><path d="M0 0h512v512H0z" fill="#000" fill-opacity="1"></path><g class="" transform="translate(0,0)" style=""><g><path d="M150.79 479.797L65.52 294.717C62.39 287.927 65.37 279.855 72.154 276.724L201.317 217.214C208.1 214.094 216.179 217.064 219.304 223.86L304.587 408.927C307.717 415.729 304.737 423.79 297.941 426.927L168.79 486.43C161.995 489.574 153.922 486.58 150.79 479.797Z" class="selected" fill="#9013fe" fill-opacity="1"></path><path d="M176.96 410.487L192.278 365.965L236.8 381.285L244.46 359.032L199.937 343.714L215.262 299.192L193.01 291.532L177.685 336.048L133.17 320.724L125.51 342.982L170.026 358.306L154.702 402.828Z" class="" fill="#000000" fill-opacity="1"></path><path d="M283.03 199.437C330.93 113.812 229.92 94.133 180.444 136.844L141.544 188.197C105.95 210 97.853 175.98 109.226 158.424L163.332 84.909L260.49 32.763C267.598 27.563 278.328 24.63 293.257 24.318L487.724 25.781L488.59 137.825L381.286 130.1C383.104 173.494 338.552 183.18 314.603 237.005L300.79 283.385C270.573 273.225 259.5 249.018 283.03 199.435Z" class="" fill="#fff" fill-opacity="1"></path><path d="M153.202 196.36L192.248 145.03C204.682 134.553 221.758 127.355 239.168 127.655C223.904 143.663 219.01 153.212 215.693 166.701C207.693 186.476 197.953 196.391 185.327 189.997C174.615 200.319 163.915 204.867 153.202 196.361Z" class="" fill="#fff" fill-opacity="1"></path></g></g></svg>