<svg xmlns="http://www.w3.org/2000/svg" viewBox="0 0 512 512" style="height: 512px; width: 512px;"><defs><filter id="shadow-7" height="300%" width="300%" x="-100%" y="-100%"><feFlood flood-color="rgba(255, 255, 255, 1)" result="flood"></feFlood><feComposite in="flood" in2="SourceGraphic" operator="atop" result="composite"></feComposite><feGaussianBlur in="composite" stdDeviation="15" result="blur"></feGaussianBlur><feOffset dx="0" dy="0" result="offset"></feOffset><feComposite in="SourceGraphic" in2="offset" operator="over"></feComposite></filter></defs><path d="M0 0h512v512H0z" fill="#000000" fill-opacity="1"></path><g class="" transform="translate(0,0)" style=""><g><path d="M296.625 25.406C232.831 25.794 160.815 40.089 90.595 58.25C87.123 92.33 92.821 127.156 104.625 162.5C181.175 75.936 393.65 44.825 486.72 128C456.02 50.466 384.046 24.874 296.624 25.406Z" class="selected" fill="#8b572a" fill-opacity="1"></path><path d="M65.655 61.438L27.906 71C33.549 149.022 56.452 203.393 88.346 245.47C71.806 255.818 47.653 265.143 19.564 272.313C25.228 278.91 33.814 288.493 50.094 290.843C74.94 286.513 90.006 275.861 103.844 264.25C180.084 349.395 294.064 383.205 356.97 488.47L406.406 488.344C290.996 275.316 81.01 364.804 65.656 61.438Z" class="" fill="#fff" fill-opacity="1"></path></g></g></svg>